<?xml version="1.0" encoding="UTF-8"?>
<svg id="Layer_1" xmlns="http://www.w3.org/2000/svg" version="1.1" viewBox="0 0 340 340">
  <!-- Generator: Adobe Illustrator 29.4.0, SVG Export Plug-In . SVG Version: 2.1.0 Build 152)  -->
  <defs>
    <style>
      .st0 {
        fill: none;
      }
    </style>
  </defs>
  <path class="st0" d="M94.2,56.3l-10.3-14.8-15.1,83c3.8,3,7.6,5.8,11.4,8.4l13.9-76.6Z"/>
  <path class="st0" d="M54.2,205l-8.1,44.7,14.8-10.3,4.8-26.6c-3.8-2.3-6.9-4.2-7.8-4.9,0,0-1.4-1-3.8-2.8Z"/>
  <polygon class="st0" points="311.9 73.8 94.4 34.2 104.7 49.1 297 84.1 311.9 73.8"/>
  <path class="st0" d="M204.8,141.7c9.1-4.3,19.4-10.6,22.7-13.8,2.8-2.8,3.2-3.4,5.9-10.2,1.6-4,3.8-8.9,5-10.9,1.9-3.2,2.4-3.7,4.7-4.3,3.2-.9,5.1.1,12.4,6.4,9.5,8.2,11.1,10.9,9,14.6-.5.9-4.5,4.8-8.8,8.5-9.5,8.4-9.7,8.8-10.4,21.7-.9,16.4-3.2,24.8-10.4,37.2-2.5,4.3-6,9.6-8.2,12.1-8,9.6-20.1,18.7-32.7,24.6-6.9,3.2-30.1,9.6-36.6,10.1-2,.2-17.9.4-32.7-1.9-14.3-2.2-27.6-6.8-27.6-6.8-8.2-3.3-13.3-5.7-20.1-9.4l-3.4,18.5,185.4,33.7,32.1-176.2L110,63.5l-14.2,78.1c16.7,9.5,30,13.7,47.8,15,21.4,1.6,43.1-2.9,65.4-13.5Z"/>
  <polygon class="st0" points="71.9 249.5 56.9 260.1 281.9 299.6 271.5 284.7 71.9 249.5"/>
  <polygon class="st0" points="282.1 276.1 292.4 291.1 331 85.1 316.1 95.4 282.1 276.1"/>
  <path d="M346.4,70.5c-.3-1.7-1.3-3.1-2.8-4-.7-.4-1.4-.8-2.3-.9L89.4,22.9c-.8-.1-1.7-.1-2.5,0-1.7.3-3.1,1.3-4,2.8-.4.7-.8,1.4-.9,2.3l-16.6,91c3.6,3.3,7.5,6.6,11.2,9.6l15.1-83,10.3,14.8-13.9,76.6c2.3,1.6,4.6,3.1,6.9,4.5,1.7,1,3.2,2,4.7,2.8l14.2-78.1,185.4,33.7-32.1,176.2L81.8,240.7l3.4-18.5c-1.8-.9-3.6-2-5.7-3.2-2.1-1.1-4.1-2.4-6-3.5l-4.8,26.6-14.8,10.3,8.1-44.7c-2.7-2.2-6.6-5.5-11.2-10l-12.3,67.8c-.1.8-.1,1.7,0,2.5.3,1.7,1.3,3.1,2.8,4,.7.4,1.4.8,2.3.9l248.4,45.2c.8.1,1.7.1,2.5,0,1.7-.3,3.1-1.3,4-2.8.4-.7.8-1.4.9-2.3,0,0,43.5-239.1,43.5-239.1.1-.8.1-1.7,0-2.5ZM104.7,49.1l-10.3-14.8L311.9,73.8l-14.8,10.3-192.3-35ZM56.9,260.1l14.8-10.3,192.7,35.1,10.3,14.8L56.9,260.1ZM292.4,291.1l-10.3-14.8,33.4-183.4,14.8-10.3-38.1,208.5Z"/>
  <path d="M29.5,122c-3.4-7.5-7.5-20.9-7.4-24.4,0-2.6.1-2.7,1.8-3.2.9-.3,2.2-.3,2.8,0,.6.3,3,3.3,5.4,6.5,8,11.1,17.1,21.1,27.1,30l2.9-16.1c-8.6-7.9-16.8-16.7-23.9-25.7-5.6-7.2-7.8-9-11.1-9.9-4.9-1.2-12.3,2.8-15.7,8.5-1.6,2.7-1.9,4.1-2.1,11-.7,23.8,3.6,44.9,12.7,61.7l2.8,5.1s5.3,10.4,16.5,23.1c2.1,2.4,4.1,4.6,6.1,6.5l6.9-38.2C36,145.6,27.2,133.3,29.5,122Z"/>
  <path d="M95.8,155.6c16.7,8.8,31.9,13.1,50.8,14.2,13.8.8,23.2-.2,37.8-4.1,13.8-3.6,21.8-6.9,34.4-14.1,4.8-2.7,9.5-5.2,10.6-5.5,4.3-1.4,7,3.5,4.8,9.1-3,7.7-11.3,17.6-20.3,24.4-19,14.5-47.5,21.8-74.1,18.8-13.9-1.4-29.7-6-43-12.3-2.5-1.1-4.9-2.4-7.3-3.7l-6.7,37c6.9,3.7,11.9,6.1,20.1,9.4,0,0,13.3,4.7,27.6,6.8,14.8,2.3,30.7,2.1,32.7,1.9,6.6-.5,29.8-6.9,36.6-10.1,12.4-5.8,24.7-14.9,32.7-24.6,2.2-2.6,5.7-7.9,8.2-12.1,7.2-12.4,9.4-20.8,10.4-37.2.7-13,.9-13.3,10.4-21.7,4.3-3.7,8.3-7.6,8.8-8.5,2.2-3.7.5-6.4-9-14.6-7.4-6.3-9.2-7.4-12.4-6.4-2.4.6-2.9,1.1-4.7,4.3-1.1,2-3.4,6.9-5,10.9-2.7,6.8-3.1,7.5-5.9,10.2-3.3,3.2-13.6,9.5-22.7,13.8-22.2,10.6-44.1,15-65.4,13.5-17.8-1.4-31.1-5.4-47.8-15l-2.7,15.1c.4.2.7.4,1.1.6Z"/>
  <path d="M83.4,147.6l2.8-15.4c-3.8-2.6-7.7-5.5-11.5-8.5l-2.9,15.8c3.7,2.9,7.6,5.6,11.5,8.1Z"/>
  <path d="M67.2,166.5l-6.9,38c2.4,1.9,3.7,2.8,3.7,2.8.9.7,3.9,2.7,7.8,5l6.9-37.3c-3.9-2.7-7.8-5.5-11.4-8.5Z"/>
  <path d="M78.5,174.9l-6.8,37.3c1.9,1.1,3.9,2.4,6,3.5,2.1,1.2,3.9,2.3,5.7,3.2l6.7-37c-4.1-2.2-7.9-4.6-11.7-7.2Z"/>
  <path d="M67.2,166.5c-3.9-3.2-7.7-6.6-11.2-10.1l-6.9,38.2c4.6,4.6,8.5,7.9,11.2,10.1l6.9-38Z"/>
  <path d="M94.6,154.5l2.7-15.1c-1.6-.9-3.1-1.9-4.8-2.8-2.3-1.4-4.7-2.9-6.9-4.5l-2.8,15.4c3.8,2.5,7.8,4.8,11.7,7Z"/>
  <path d="M72.1,139.4l2.9-15.8c-3.8-3-7.6-6.2-11.2-9.6l-2.9,16.1c3.6,3.3,7.4,6.4,11.3,9.3Z"/>
</svg>